<svg width="60" height="60" viewBox="0 0 60 60" fill="none" xmlns="http://www.w3.org/2000/svg">
<path d="M39.8462 32.7709C39.8462 32.7709 49.1525 33.7189 49.9673 29.6445C50.773 25.5701 36.5058 1.0602 28.657 0.030216C21.0979 -0.963307 0.864888 22.8539 1.00068 25.6977C1.13647 28.5507 9.77285 31.1302 9.77285 31.1302C9.77285 31.1302 7.61824 42.9431 7.74498 48.5123C7.88077 54.0815 17.1056 56.5243 25.5066 57.609C33.9167 58.6936 40.9235 57.7457 41.1951 51.9031C41.4667 46.0604 39.8462 32.7527 39.8462 32.7527L39.8462 32.7709Z" fill="#C9BDDE"/>
<path d="M43.8462 33.7709C43.8462 33.7709 53.1525 34.7189 53.9673 30.6445C54.773 26.5701 40.5058 2.0602 32.657 1.03022C25.0979 0.0366932 4.86489 23.8539 5.00068 26.6977C5.13647 29.5507 13.7729 32.1302 13.7729 32.1302C13.7729 32.1302 11.6182 43.9431 11.745 49.5123C11.8808 55.0815 21.1056 57.5243 29.5066 58.609C37.9167 59.6936 44.9235 58.7457 45.1951 52.9031C45.4667 47.0604 43.8462 33.7527 43.8462 33.7527L43.8462 33.7709Z" fill="#1F292D"/>
</svg>
