<svg width="60" height="60" viewBox="0 0 60 60" fill="none" xmlns="http://www.w3.org/2000/svg">
<path d="M4.06557 34.5037C3.91757 28.4528 3.66508 26.137 7.79186 23.6209C11.9273 21.1047 23.9159 14.6534 27.3461 13.6434C30.7764 12.6335 36.923 13.3387 38.4292 17.57C39.9354 21.8012 40.7451 41.3555 40.5449 45.0818C40.3446 48.8081 38.3248 53.5269 32.4828 52.1252C26.6409 50.7235 14.043 47.5022 10.1077 45.9873C6.18119 44.4724 4.26582 42.557 4.05687 34.495L4.06557 34.5037Z" fill="#C9BDDE"/>
<path d="M45.7425 22.5411C45.0547 22.5411 44.3582 22.2799 43.8271 21.7488C42.7736 20.6954 42.7736 18.9802 43.8271 17.9268L48.9638 12.7901C50.0172 11.7366 51.7324 11.7366 52.7858 12.7901C53.8393 13.8436 53.8393 15.5587 52.7858 16.6122L47.6491 21.7488C47.1181 22.2799 46.4303 22.5411 45.7338 22.5411H45.7425Z" fill="#C9BDDE"/>
<path d="M50.8792 51.4195C50.1914 51.4195 49.4949 51.1583 48.9638 50.6272L43.8271 45.4906C42.7736 44.4371 42.7736 42.722 43.8271 41.6685C44.8805 40.6151 46.5957 40.6151 47.6491 41.6685L52.7858 46.8052C53.8393 47.8587 53.8393 49.5738 52.7858 50.6272C52.2548 51.1583 51.567 51.4195 50.8705 51.4195H50.8792Z" fill="#C9BDDE"/>
<path d="M55.3629 34.4075H46.5957C45.0982 34.4075 43.8881 33.1973 43.8881 31.6998C43.8881 30.2023 45.0982 28.9922 46.5957 28.9922H55.3629C56.8604 28.9922 58.0706 30.2023 58.0706 31.6998C58.0706 33.1973 56.8604 34.4075 55.3629 34.4075Z" fill="#C9BDDE"/>
<path d="M4.06557 31.5037C3.91757 25.4528 3.66508 23.137 7.79186 20.6209C11.9273 18.1047 23.9159 11.6534 27.3461 10.6434C30.7764 9.63351 36.923 10.3387 38.4292 14.57C39.9354 18.8012 40.7451 38.3555 40.5449 42.0818C40.3446 45.8081 38.3248 50.5269 32.4828 49.1252C26.6409 47.7235 14.043 44.5022 10.1077 42.9873C6.18119 41.4724 4.26582 39.557 4.05687 31.495L4.06557 31.5037Z" fill="#1F292D"/>
<path d="M45.7425 19.5411C45.0547 19.5411 44.3582 19.2799 43.8271 18.7488C42.7736 17.6954 42.7736 15.9802 43.8271 14.9268L48.9638 9.79009C50.0172 8.73664 51.7324 8.73664 52.7858 9.79009C53.8393 10.8436 53.8393 12.5587 52.7858 13.6122L47.6491 18.7488C47.1181 19.2799 46.4303 19.5411 45.7338 19.5411H45.7425Z" fill="#1F292D"/>
<path d="M50.8792 48.4195C50.1914 48.4195 49.4949 48.1583 48.9638 47.6272L43.8271 42.4906C42.7736 41.4371 42.7736 39.722 43.8271 38.6685C44.8805 37.6151 46.5957 37.6151 47.6491 38.6685L52.7858 43.8052C53.8393 44.8587 53.8393 46.5738 52.7858 47.6272C52.2548 48.1583 51.567 48.4195 50.8705 48.4195H50.8792Z" fill="#1F292D"/>
<path d="M55.3629 31.4075H46.5957C45.0982 31.4075 43.8881 30.1973 43.8881 28.6998C43.8881 27.2023 45.0982 25.9922 46.5957 25.9922H55.3629C56.8604 25.9922 58.0706 27.2023 58.0706 28.6998C58.0706 30.1973 56.8604 31.4075 55.3629 31.4075Z" fill="#1F292D"/>
<path d="M46.9584 51.0692C48.5043 53.1668 47.4281 55.9237 45.5343 57.3194C43.6403 58.715 40.6892 58.9261 39.1434 56.8287L6.09317 11.9826C4.54765 9.88515 5.62349 7.12954 7.51714 5.73377C9.41096 4.33807 12.3623 4.12583 13.9082 6.22316L46.9584 51.0692Z" fill="#1F292D" stroke="white" stroke-width="3" stroke-linecap="round"/>
</svg>
