<svg width="60" height="60" viewBox="0 0 60 60" fill="none" xmlns="http://www.w3.org/2000/svg">
<path d="M19.0657 37.9998C17.9628 37.9554 16.9621 35.1384 16.9621 35.1384C16.9621 35.1384 16.9621 35.1354 16.9586 35.1265C16.8775 34.8221 15.3377 28.9012 16.3349 23.8434C16.3912 23.5478 16.4582 23.2552 16.5357 22.9655C16.7154 22.4836 17.022 22.0964 17.54 22.0107C19.115 21.7476 28.5901 26.4063 28.9883 28.9691C29.3724 31.4404 20.1651 38.0441 19.0657 37.9998Z" fill="white"/>
<path d="M49.1216 25.4727C51.726 25.4727 53.6358 27.9219 53.0009 30.4478L51.4083 36.7837C50.9613 38.562 49.3625 39.8086 47.529 39.8086H11.4173C9.54423 39.8086 7.92199 38.5088 7.51355 36.6808L6.09789 30.3449C5.53948 27.8456 7.44075 25.4727 10.0016 25.4727H49.1216Z" fill="#C9BDDE"/>
<path d="M51.1546 21C53.7589 21 55.6687 23.4491 55.034 25.9749L53.4418 32.3108C52.9949 34.0892 51.3961 35.3359 49.5625 35.3359H13.451C11.5779 35.3359 9.95568 34.0362 9.54724 32.2082L8.13159 25.8722C7.57317 23.373 9.47445 21 12.0353 21H51.1546Z" fill="black"/>
</svg>
