<svg width="60" height="60" viewBox="0 0 60 60" fill="none" xmlns="http://www.w3.org/2000/svg">
<path d="M27.5856 17.9593C25.9176 16.9675 23.3713 15.4959 21.5 15C19.6287 14.5041 17.412 15 15.5 15C14.0355 15 12.8345 14.7109 11.3905 15C9.94622 15.2894 8.00382 16.1413 6.66132 16.7199L7.8821 44.2448C9.30591 43.7489 10.7198 43.3769 12.1231 43.129C13.5267 42.8809 14.9608 42.757 16.4253 42.757C18.3372 42.757 20.1986 42.9739 22.0088 43.4081C23.819 43.8422 25.6192 44.4929 27.4092 45.3609L27.5856 17.9593ZM23.5037 49.0189C21.2255 48.151 18.866 47.7171 16.425 47.7171C14.7163 47.7171 13.0383 47.9444 11.3905 48.3991C9.74267 48.8537 8.16645 49.4943 6.66132 50.321C5.80698 50.7756 4.98332 50.7548 4.18984 50.2589C3.39661 49.763 3 49.0397 3 48.0891V18.2074C3 17.7528 3.112 17.319 3.3355 16.9056C3.55925 16.4923 3.895 16.1824 4.3425 15.9756C6.21382 14.9837 8.16671 14.24 10.2007 13.744C12.2349 13.2481 14.3095 13 16.425 13C18.7845 13 21.0933 13.3099 23.351 13.93C25.609 14.5499 27.7751 15.4799 29.85 16.7199C31.9249 15.4799 34.091 14.5501 36.349 13.93C38.6067 13.3099 40.9155 13 43.275 13C45.3905 13 47.4651 13.2481 49.4993 13.744C51.5335 14.24 53.4862 14.984 55.3575 15.9759C55.805 16.1824 56.1405 16.4926 56.3645 16.9059C56.5882 17.3192 56.7 17.7531 56.7 18.2077V48.0891C56.7 49.0397 56.3034 49.763 55.5102 50.2589C54.7169 50.7548 53.893 50.7756 53.0387 50.321C51.5335 49.4943 49.9571 48.8537 48.3095 48.3991C46.6619 47.9444 44.9837 47.7171 43.275 47.7171C40.8342 47.7171 38.4745 48.151 36.1963 49.0189C34.772 49.5616 33.4113 50.2415 32.1144 51.0588C30.7274 51.9327 28.9726 51.9327 27.5856 51.0588C26.2887 50.2415 24.928 49.5616 23.5037 49.0189Z" fill="#C9BDDE"/>
<path d="M20.8795 22.9878C19.4557 22.5952 17.9708 22.3988 16.425 22.3988C15.3267 22.3988 14.279 22.4919 13.2823 22.6779C12.2855 22.8639 11.299 23.1429 10.3226 23.5149V19.5472C11.299 19.2991 12.2957 19.0925 13.3127 18.9273C14.3297 18.7621 15.3671 18.6792 16.4247 18.6792C17.9705 18.6792 19.4452 18.8239 20.8489 19.1131C22.2525 19.4025 23.6254 19.8363 24.9679 20.4149V24.6304C23.6661 23.9277 22.3034 23.3801 20.8793 22.9875L20.8795 22.9878ZM20.8795 36.5957C19.4557 36.2237 17.9708 36.0377 16.425 36.0377C15.3267 36.0377 14.279 36.1307 13.2823 36.3167C12.2855 36.5027 11.299 36.7817 10.3226 37.1537V33.186C11.299 32.9379 12.2957 32.7313 13.3127 32.5661C14.3297 32.4009 15.3671 32.318 16.4247 32.318C17.9705 32.318 19.4452 32.4627 20.8489 32.7519C22.2525 33.0413 23.6254 33.4751 24.9679 34.0537V38.2692C23.6661 37.5252 22.3034 36.9674 20.8793 36.5954L20.8795 36.5957ZM20.8795 29.8072C19.4557 29.4146 17.9708 29.2183 16.425 29.2183C15.3267 29.2183 14.279 29.3113 13.2823 29.4973C12.2855 29.6833 11.299 29.9623 10.3226 30.3343V26.3666C11.299 26.1185 12.2957 25.9119 13.3127 25.7467C14.3297 25.5815 15.3671 25.4986 16.4247 25.4986C17.9705 25.4986 19.4452 25.6433 20.8489 25.9325C22.2525 26.2219 23.6254 26.6557 24.9679 27.2343V31.4498C23.6661 30.7471 22.3034 30.1997 20.8793 29.8069L20.8795 29.8072ZM27.4092 17.9352C25.7412 16.9433 23.9716 16.1993 22.1003 15.7034C20.229 15.2074 18.3372 14.9593 16.4253 14.9593C14.9608 14.9593 13.5063 15.104 12.0623 15.3932C10.618 15.6826 9.2246 16.1164 7.8821 16.695V41.2448C9.30591 40.7489 10.7198 40.3769 12.1231 40.129C13.5267 39.8809 14.9608 39.757 16.4253 39.757C18.3372 39.757 20.1986 39.9739 22.0088 40.4081C23.819 40.8422 25.6192 41.4929 27.4092 42.3609V17.9352ZM23.5037 46.0189C21.2255 45.151 18.866 44.7171 16.425 44.7171C14.7163 44.7171 13.0383 44.9444 11.3905 45.3991C9.74267 45.8537 8.16645 46.4943 6.66132 47.321C5.80698 47.7756 4.98332 47.7548 4.18984 47.2589C3.39661 46.763 3 46.0397 3 45.0891V15.2074C3 14.7528 3.112 14.319 3.3355 13.9056C3.55925 13.4923 3.895 13.1824 4.3425 12.9756C6.21382 11.9837 8.16671 11.24 10.2007 10.744C12.2349 10.2481 14.3095 10 16.425 10C18.7845 10 21.0933 10.3099 23.351 10.93C25.609 11.5499 27.7751 12.4799 29.85 13.7199C31.9249 12.4799 34.091 11.5501 36.349 10.93C38.6067 10.3099 40.9155 10 43.275 10C45.3905 10 47.4651 10.2481 49.4993 10.744C51.5335 11.24 53.4862 11.984 55.3575 12.9759C55.805 13.1824 56.1405 13.4926 56.3645 13.9059C56.5882 14.3192 56.7 14.7531 56.7 15.2077V45.0891C56.7 46.0397 56.3034 46.763 55.5102 47.2589C54.7169 47.7548 53.893 47.7756 53.0387 47.321C51.5335 46.4943 49.9571 45.8537 48.3095 45.3991C46.6619 44.9444 44.9837 44.7171 43.275 44.7171C40.8342 44.7171 38.4745 45.151 36.1963 46.0189C34.772 46.5616 33.4113 47.2415 32.1144 48.0588C30.7274 48.9327 28.9726 48.9327 27.5856 48.0588C26.2887 47.2415 24.928 46.5616 23.5037 46.0189Z" fill="#1F292D"/>
<path d="M48.9834 32.0855L44.5194 22.3235C44.2923 21.8499 44.0263 21.5039 43.7218 21.2854C43.417 21.0669 43.0613 20.9575 42.655 20.9575C42.2486 20.9575 41.887 21.0669 41.5705 21.2854C41.2536 21.5039 40.9877 21.8499 40.7726 22.3235L36.3089 32.0855C36.1414 32.4741 36.0874 32.823 36.1475 33.1327C36.2071 33.4424 36.3626 33.6853 36.6134 33.8611C36.8646 34.037 37.1753 34.1253 37.5458 34.1253C38.0119 34.1253 38.3584 34.016 38.5855 33.7975C38.8123 33.579 39.0338 33.227 39.2488 32.7412L39.828 31.357H45.464L46.0432 32.7412C46.2465 33.227 46.4763 33.579 46.7333 33.7975C46.9903 34.016 47.3578 34.1253 47.836 34.1253C48.1945 34.1253 48.4962 34.0401 48.7412 33.8705C48.9862 33.7006 49.1358 33.4577 49.1895 33.1418C49.2432 32.8261 49.1744 32.4741 48.9834 32.0855ZM40.9 28.7891L42.6192 24.6182H42.655L44.3892 28.7891H40.9Z" fill="white"/>
</svg>
