<svg width="60" height="60" viewBox="0 0 60 60" fill="none" xmlns="http://www.w3.org/2000/svg">
<path d="M19.0657 37.9998C17.9628 37.9554 16.9621 35.1384 16.9621 35.1384C16.9621 35.1384 16.9621 35.1354 16.9586 35.1265C16.8775 34.8221 15.3377 28.9012 16.3349 23.8434C16.3912 23.5478 16.4582 23.2552 16.5357 22.9655C16.7154 22.4836 17.022 22.0964 17.54 22.0107C19.115 21.7476 28.5901 26.4063 28.9883 28.9691C29.3724 31.4404 20.1651 38.0441 19.0657 37.9998Z" fill="white"/>
<path d="M32.7915 47C30.1238 47 27.8322 46.4636 25.9169 45.3906C24.0016 44.3177 22.5309 42.8038 21.5049 40.8487C20.5016 38.8936 20 36.6048 20 33.9821C20 31.3595 20.5016 29.0825 21.5049 27.1513C22.5309 25.1962 24.0016 23.6823 25.9169 22.6094C27.8322 21.5365 30.1238 21 32.7915 21C34.3876 21 35.9267 21.2503 37.4088 21.751C38.8909 22.2517 40.0879 22.9312 41 23.7895L39.1189 28.9752C38.1156 28.2123 37.1124 27.652 36.1091 27.2944C35.1059 26.9129 34.0798 26.7221 33.0309 26.7221C30.9104 26.7221 29.3143 27.354 28.2427 28.6176C27.171 29.8574 26.6352 31.6456 26.6352 33.9821C26.6352 36.3425 27.171 38.1545 28.2427 39.4182C29.3143 40.658 30.9104 41.2779 33.0309 41.2779C34.0798 41.2779 35.1059 41.099 36.1091 40.7414C37.1124 40.3599 38.1156 39.7877 39.1189 39.0248L41 44.2105C40.0879 45.0449 38.8909 45.7244 37.4088 46.249C35.9267 46.7497 34.3876 47 32.7915 47Z" fill="#C9BDDE"/>
<path fill-rule="evenodd" clip-rule="evenodd" d="M31 54C42.0457 54 51 45.0457 51 34C51 22.9543 42.0457 14 31 14C19.9543 14 11 22.9543 11 34C11 45.0457 19.9543 54 31 54ZM31 60C45.3594 60 57 48.3594 57 34C57 19.6406 45.3594 8 31 8C16.6406 8 5 19.6406 5 34C5 48.3594 16.6406 60 31 60Z" fill="#C9BDDE"/>
<path d="M31.7915 43C29.1238 43 26.8322 42.4636 24.9169 41.3906C23.0016 40.3177 21.5309 38.8038 20.5049 36.8487C19.5016 34.8936 19 32.6048 19 29.9821C19 27.3595 19.5016 25.0825 20.5049 23.1513C21.5309 21.1962 23.0016 19.6823 24.9169 18.6094C26.8322 17.5365 29.1238 17 31.7915 17C33.3876 17 34.9267 17.2503 36.4088 17.751C37.8909 18.2517 39.0879 18.9312 40 19.7895L38.1189 24.9752C37.1156 24.2123 36.1124 23.652 35.1091 23.2944C34.1059 22.9129 33.0798 22.7221 32.0309 22.7221C29.9104 22.7221 28.3143 23.354 27.2427 24.6176C26.171 25.8574 25.6352 27.6456 25.6352 29.9821C25.6352 32.3425 26.171 34.1545 27.2427 35.4182C28.3143 36.658 29.9104 37.2779 32.0309 37.2779C33.0798 37.2779 34.1059 37.099 35.1091 36.7414C36.1124 36.3599 37.1156 35.7877 38.1189 35.0248L40 40.2105C39.0879 41.0449 37.8909 41.7244 36.4088 42.249C34.9267 42.7497 33.3876 43 31.7915 43Z" fill="black"/>
<path fill-rule="evenodd" clip-rule="evenodd" d="M30 50C41.0457 50 50 41.0457 50 30C50 18.9543 41.0457 10 30 10C18.9543 10 10 18.9543 10 30C10 41.0457 18.9543 50 30 50ZM30 56C44.3594 56 56 44.3594 56 30C56 15.6406 44.3594 4 30 4C15.6406 4 4 15.6406 4 30C4 44.3594 15.6406 56 30 56Z" fill="black"/>
</svg>
