<svg width="60" height="60" viewBox="0 0 60 60" fill="none" xmlns="http://www.w3.org/2000/svg">
<path d="M27.2291 20.1538C27.2291 20.1538 26.2811 10.8475 30.3555 10.0327C34.4299 9.22702 58.9398 23.4942 59.9698 31.343C60.9633 38.9021 37.1461 59.1351 34.3023 58.9993C31.4493 58.8635 28.8698 50.2271 28.8698 50.2271C28.8698 50.2271 17.0569 52.3818 11.4877 52.255C5.91849 52.1192 3.4757 42.8944 2.39102 34.4934C1.30635 26.0833 2.2543 19.0765 8.09694 18.8049C13.9396 18.5333 27.2473 20.1538 27.2473 20.1538H27.2291Z" fill="#C9BDDE"/>
<path d="M26.2291 16.1538C26.2291 16.1538 25.2811 6.84748 29.3555 6.03272C33.4299 5.22702 57.9398 19.4942 58.9698 27.343C59.9633 34.9021 36.1461 55.1351 33.3023 54.9993C30.4493 54.8635 27.8698 46.2271 27.8698 46.2271C27.8698 46.2271 16.0569 48.3818 10.4877 48.255C4.91849 48.1192 2.4757 38.8944 1.39102 30.4934C0.306353 22.0833 1.2543 15.0765 7.09694 14.8049C12.9396 14.5333 26.2473 16.1538 26.2473 16.1538H26.2291Z" fill="#1F292D"/>
</svg>
