<svg width="60" height="60" viewBox="0 0 60 60" fill="none" xmlns="http://www.w3.org/2000/svg">
<path d="M52.2162 10.0599C50.0947 10.4293 22.7763 15.768 21.4598 16.0534C20.1434 16.3472 18.5418 16.7837 18.5418 20.368V38.1971C17.3847 37.7103 16.1102 37.4416 14.7686 37.4416C9.37699 37.4416 5 41.815 5 47.2208C5 52.6267 9.3686 57 14.7686 57C20.1685 57 24.5371 52.6267 24.5371 47.2208V31.3391L47.8308 26.8818V32.4891C47.0007 32.2625 46.1286 32.1281 45.2314 32.1281C39.8398 32.1281 35.4629 36.5015 35.4629 41.9073C35.4629 47.3132 39.8315 51.6865 45.2314 51.6865C50.6314 51.6865 55 47.3132 55 41.9073V12.914C55 11.0085 54.3376 9.69898 52.2162 10.0599Z" fill="#C9BDDE"/>
<path d="M50.2162 7.05993C48.0947 7.42927 20.7763 12.768 19.4598 13.0534C18.1434 13.3472 16.5418 13.7837 16.5418 17.368V35.1971C15.3847 34.7103 14.1102 34.4416 12.7686 34.4416C7.37699 34.4416 3 38.815 3 44.2208C3 49.6267 7.3686 54 12.7686 54C18.1685 54 22.5371 49.6267 22.5371 44.2208V28.3391L45.8308 23.8818V29.4891C45.0007 29.2625 44.1286 29.1281 43.2314 29.1281C37.8398 29.1281 33.4629 33.5015 33.4629 38.9073C33.4629 44.3132 37.8315 48.6865 43.2314 48.6865C48.6314 48.6865 53 44.3132 53 38.9073V9.91396C53 8.00849 52.3376 6.69898 50.2162 7.05993Z" fill="#1F292D"/>
</svg>
