<svg width="49" height="47" viewBox="0 0 49 47" fill="none" xmlns="http://www.w3.org/2000/svg">
<path d="M42 19.8871C42 18.2449 41.2067 17.1532 39.492 17.0308C36.9432 16.8893 34.4776 16.8708 32.1347 17.0308C31.9619 17.0308 31.8245 16.8845 31.8322 16.7095C31.9849 13.3671 33.2248 12.9252 32.9865 9.55656C32.9027 8.37714 32.1153 6.85494 31.1131 6.31689C30.2331 5.84452 28.0034 5.56624 27.8961 8.00749C27.8341 8.69961 27.8229 9.57686 27.7221 10.1639C27.0526 14.0616 23.3566 16.7191 20.2268 18.639C19.2347 19.223 18.4095 19.7784 17.7282 20.317L17.7282 34.5555C19.742 36.138 23.9983 37.9857 28.2842 37.9857C29.9511 37.9857 29.4987 38.0066 30.807 37.997C34.0435 37.9737 36.6577 37.7629 37.6581 36.5841C37.6976 36.5357 37.7814 36.3978 37.7991 36.3649C37.9371 36.1117 38.0793 35.7457 38.0804 35.2667V34.7161C38.0804 33.9547 37.8923 33.2871 37.2995 32.9097C39.0006 32.9097 39.8341 31.4681 39.8341 30.1537V29.4676C39.8341 28.7109 39.1115 28.0469 38.5228 27.6713H38.6219C39.7544 27.6713 41.0863 26.8478 41.0863 25.485V24.5666C41.0863 23.9097 40.2234 22.5941 39.7592 22.2065C41.0916 22.1169 42 21.2594 42 19.8871Z" fill="white"/>
<path d="M9.1158 17.8848C7.9473 17.8848 7 18.8438 7 20.0268L7 35.8579C7 37.0409 7.9473 38 9.1158 38H13.0713C14.2398 38 15.1871 37.0409 15.1871 35.8579L15.1871 20.0268C15.1871 18.8438 14.2398 17.8848 13.0713 17.8848L9.1158 17.8848ZM11.093 35.4835C10.1616 35.4835 9.40659 34.7191 9.40659 33.7762C9.40659 32.8332 10.1616 32.0689 11.093 32.0689C12.0244 32.0689 12.7794 32.8332 12.7794 33.7762C12.7794 34.7191 12.0244 35.4835 11.093 35.4835Z" fill="white"/>
<path d="M27.96 1.22948C29.9969 0.701351 31.9467 1.16283 33.2305 1.78515L33.4775 1.91112L33.4785 1.9121C35.1203 2.79368 36.1613 4.18772 36.7588 5.25683C37.3834 6.37473 37.8709 7.75645 37.9736 9.20214V9.20409C38.0489 10.268 38.0175 11.1697 37.9258 11.957C38.2031 11.9661 38.4808 11.9762 38.7588 11.9883L39.7695 12.0381L39.8477 12.0439C41.7443 12.1793 43.7584 12.9283 45.2246 14.6816C46.6209 16.3514 46.9999 18.3133 47 19.8867C47 21.1725 46.6869 22.4763 46.0098 23.6387C46.0549 23.9253 46.0859 24.2366 46.0859 24.5664V25.4853C46.0859 27.0597 45.5755 28.4011 44.833 29.4648L44.834 29.4678V30.1533C44.834 31.7893 44.331 33.6246 43.1045 35.1533C43.0968 35.1629 43.0879 35.172 43.0801 35.1816V35.2793C43.0763 36.7747 42.6255 37.9488 42.2002 38.7353L42.2012 38.7363C42.1996 38.7392 42.197 38.7419 42.1953 38.7451C42.1931 38.7492 42.1917 38.7537 42.1895 38.7578L42.1885 38.7568C42.1066 38.9066 41.8553 39.3502 41.5303 39.748C41.5107 39.772 41.4907 39.7957 41.4707 39.8193C39.7654 41.8288 37.3202 42.4115 35.916 42.6523C34.3013 42.9293 32.4882 42.9842 30.8428 42.9961C30.1544 43.0011 29.9022 42.9988 29.6025 42.9941C29.3646 42.9904 29.087 42.9853 28.2842 42.9853C24.6742 42.9853 21.1253 41.9983 18.3115 40.6855C17.0201 42.1007 15.1651 43 13.0713 43H9.11621C5.12847 43 2.00025 39.7443 2 35.8584V20.0264C2.00024 16.1405 5.12846 12.8848 9.11621 12.8848V17.8848L8.89941 17.8955C7.83269 18.0052 7.00023 18.9175 7 20.0264V35.8584C7.00025 37.0412 7.94787 38 9.11621 38H13.0713C14.2396 38 15.1872 37.0412 15.1875 35.8584V20.0264C15.1873 18.9176 14.3546 18.0054 13.2881 17.8955L13.0713 17.8848V12.8848C14.7619 12.8848 16.2971 13.4711 17.5059 14.4414C17.5414 14.4202 17.5765 14.3981 17.6123 14.3769C19.0949 13.4674 20.3968 12.5678 21.3711 11.5986C22.3319 10.6429 22.6947 9.89499 22.7939 9.31738L22.833 8.8203C22.8481 8.57232 22.8733 8.0953 22.9072 7.67968C22.9828 6.33888 23.3741 4.87952 24.3545 3.60253C25.3793 2.26769 26.7274 1.54909 27.96 1.22948ZM31.1133 6.3164C30.2332 5.84406 28.0038 5.56663 27.8965 8.0078C27.8346 8.69989 27.8225 9.57711 27.7217 10.1641C27.0521 14.0617 23.3563 16.7188 20.2266 18.6387C19.2345 19.2227 18.4098 19.7787 17.7285 20.3174V34.5557C19.7424 36.1381 23.9985 37.9853 28.2842 37.9853C29.951 37.9853 29.4988 38.0066 30.8066 37.9971C34.0432 37.9738 36.6578 37.7628 37.6582 36.584C37.6976 36.5357 37.7808 36.3987 37.7988 36.3652C37.9369 36.112 38.0789 35.7455 38.0801 35.2666V34.7158C38.08 33.9547 37.8922 33.2876 37.2998 32.9101C39.0007 32.91 39.834 31.4676 39.834 30.1533V29.4678C39.834 28.7111 39.1111 28.0465 38.5225 27.6709H38.6221C39.7545 27.6708 41.0857 26.8478 41.0859 25.4853V24.5664C41.0858 23.9095 40.223 22.5936 39.7588 22.206C41.0913 22.1165 42 21.259 42 19.8867C41.9999 18.2448 41.2066 17.1537 39.4922 17.0312C36.9434 16.8897 34.4777 16.8712 32.1348 17.0312L32.0723 17.0244C31.9302 16.9942 31.8255 16.863 31.832 16.71C31.9753 13.5765 33.0742 12.9918 33.0146 10.1553L32.9863 9.55663C32.9026 8.37721 32.1154 6.85445 31.1133 6.3164ZM11.0928 32.0693C12.0241 32.0693 12.7793 32.8334 12.7793 33.7764C12.7792 34.7192 12.0241 35.4834 11.0928 35.4834C10.2198 35.4833 9.50157 34.8118 9.41504 33.9512L9.40625 33.7764C9.40625 32.8335 10.1615 32.0694 11.0928 32.0693ZM13.0713 12.8848V17.8848H9.11621V12.8848H13.0713Z" fill="#1F292D"/>
</svg>
