<svg width="60" height="60" viewBox="0 0 60 60" fill="none" xmlns="http://www.w3.org/2000/svg">
<path d="M34.5083 23.3401C32.0747 21.0638 31.5946 20.9893 30.4108 20.9893C29.2271 20.9893 28.747 21.0638 26.3133 23.3401C24.1528 25.3599 15.5936 33.4473 14.1119 35.0201C12.6302 36.5846 12.5474 37.9835 12.5474 41.1208V54.4563C12.5474 56.6333 13.8305 58.2889 16.4876 58.2889H43.2828C47.2395 58.2889 48.2743 56.6333 48.2743 54.4563V41.1208C48.2743 37.9835 48.1832 36.5929 46.7098 35.0201C45.228 33.4556 36.6688 25.3682 34.5083 23.3401Z" fill="#C9BDDE"/>
<path d="M54.2177 25.6415C52.1234 23.6797 36.8758 10.4767 35.1374 9.04461C33.3991 7.61256 31.8843 7 30.4191 7C28.9539 7 27.4391 7.61256 25.7008 9.04461C23.9542 10.4849 8.70653 23.6797 6.62053 25.6415C4.52626 27.6033 3.77298 29.8549 5.00637 31.3946C6.27287 32.9591 8.66514 33.0087 11.1485 30.782C13.6318 28.5636 28.4987 14.4831 30.4191 14.4831C32.3395 14.4831 47.2064 28.5553 49.6897 30.782C52.1731 33.0004 54.5736 32.9591 55.8318 31.3946C57.0652 29.8632 56.312 27.6033 54.2177 25.6415Z" fill="#C9BDDE"/>
<path d="M34.5083 20.3401C32.0747 18.0638 31.5946 17.9893 30.4108 17.9893C29.2271 17.9893 28.747 18.0638 26.3133 20.3401C24.1528 22.3599 15.5936 30.4473 14.1119 32.0201C12.6302 33.5846 12.5474 34.9835 12.5474 38.1208V51.4563C12.5474 53.6333 13.8305 55.2889 16.4876 55.2889H43.2828C47.2395 55.2889 48.2743 53.6333 48.2743 51.4563V38.1208C48.2743 34.9835 48.1832 33.5929 46.7098 32.0201C45.228 30.4556 36.6688 22.3682 34.5083 20.3401Z" fill="#1F292D"/>
<path d="M54.2177 22.6415C52.1234 20.6797 36.8758 7.47666 35.1374 6.04461C33.3991 4.61256 31.8843 4 30.4191 4C28.9539 4 27.4391 4.61256 25.7008 6.04461C23.9542 7.48494 8.70653 20.6797 6.62053 22.6415C4.52626 24.6033 3.77298 26.8549 5.00637 28.3946C6.27287 29.9591 8.66514 30.0087 11.1485 27.782C13.6318 25.5636 28.4987 11.4831 30.4191 11.4831C32.3395 11.4831 47.2064 25.5553 49.6897 27.782C52.1731 30.0004 54.5736 29.9591 55.8318 28.3946C57.0652 26.8632 56.312 24.6033 54.2177 22.6415Z" fill="#1F292D"/>
</svg>
