<svg width="60" height="60" viewBox="0 0 60 60" fill="none" xmlns="http://www.w3.org/2000/svg">
<path d="M4.06557 34.5035C3.91757 28.4527 3.66508 26.1368 7.79186 23.6207C11.9273 21.1046 23.9159 14.6532 27.3461 13.6433C30.7764 12.6333 36.923 13.3385 38.4292 17.5698C39.9354 21.801 40.7451 41.3553 40.5449 45.0816C40.3446 48.8079 38.3248 53.5267 32.4828 52.125C26.6409 50.7233 14.043 47.502 10.1077 45.9871C6.18119 44.4722 4.26582 42.5568 4.05687 34.4948L4.06557 34.5035Z" fill="#C9BDDE"/>
<path d="M45.7426 22.5411C45.0548 22.5411 44.3583 22.2799 43.8272 21.7488C42.7737 20.6954 42.7737 18.9802 43.8272 17.9268L48.9639 12.7901C50.0174 11.7366 51.7325 11.7366 52.786 12.7901C53.8394 13.8436 53.8394 15.5587 52.786 16.6122L47.6493 21.7488C47.1182 22.2799 46.4304 22.5411 45.7339 22.5411H45.7426Z" fill="#C9BDDE"/>
<path d="M50.8793 51.4198C50.1915 51.4198 49.495 51.1585 48.9639 50.6275L43.8272 45.4908C42.7737 44.4373 42.7737 42.7222 43.8272 41.6687C44.8807 40.6153 46.5958 40.6153 47.6493 41.6687L52.786 46.8054C53.8394 47.8589 53.8394 49.574 52.786 50.6275C52.2549 51.1585 51.5671 51.4198 50.8706 51.4198H50.8793Z" fill="#C9BDDE"/>
<path d="M55.3631 34.4075H46.5958C45.0984 34.4075 43.8882 33.1973 43.8882 31.6998C43.8882 30.2023 45.0984 28.9922 46.5958 28.9922H55.3631C56.8605 28.9922 58.0707 30.2023 58.0707 31.6998C58.0707 33.1973 56.8605 34.4075 55.3631 34.4075Z" fill="#C9BDDE"/>
<path d="M4.06557 31.5035C3.91757 25.4527 3.66508 23.1368 7.79186 20.6207C11.9273 18.1046 23.9159 11.6532 27.3461 10.6433C30.7764 9.63333 36.923 10.3385 38.4292 14.5698C39.9354 18.801 40.7451 38.3553 40.5449 42.0816C40.3446 45.8079 38.3248 50.5267 32.4828 49.125C26.6409 47.7233 14.043 44.502 10.1077 42.9871C6.18119 41.4722 4.26582 39.5568 4.05687 31.4948L4.06557 31.5035Z" fill="#1F292D"/>
<path d="M45.7426 19.5411C45.0548 19.5411 44.3583 19.2799 43.8272 18.7488C42.7737 17.6954 42.7737 15.9802 43.8272 14.9268L48.9639 9.79009C50.0174 8.73664 51.7325 8.73664 52.786 9.79009C53.8394 10.8436 53.8394 12.5587 52.786 13.6122L47.6493 18.7488C47.1182 19.2799 46.4304 19.5411 45.7339 19.5411H45.7426Z" fill="#1F292D"/>
<path d="M50.8793 48.4198C50.1915 48.4198 49.495 48.1585 48.9639 47.6275L43.8272 42.4908C42.7737 41.4373 42.7737 39.7222 43.8272 38.6687C44.8807 37.6153 46.5958 37.6153 47.6493 38.6687L52.786 43.8054C53.8394 44.8589 53.8394 46.574 52.786 47.6275C52.2549 48.1585 51.5671 48.4198 50.8706 48.4198H50.8793Z" fill="#1F292D"/>
<path d="M55.3631 31.4075H46.5958C45.0984 31.4075 43.8882 30.1973 43.8882 28.6998C43.8882 27.2023 45.0984 25.9922 46.5958 25.9922H55.3631C56.8605 25.9922 58.0707 27.2023 58.0707 28.6998C58.0707 30.1973 56.8605 31.4075 55.3631 31.4075Z" fill="#1F292D"/>
</svg>
