<svg width="60" height="60" viewBox="0 0 60 60" fill="none" xmlns="http://www.w3.org/2000/svg">
<path d="M32.7709 20.1538C32.7709 20.1538 33.7189 10.8475 29.6445 10.0327C25.5701 9.22702 1.0602 23.4942 0.0302162 31.343C-0.963306 38.9021 22.8539 59.1351 25.6977 58.9993C28.5507 58.8635 31.1302 50.2271 31.1302 50.2271C31.1302 50.2271 42.9431 52.3818 48.5123 52.255C54.0815 52.1192 56.5243 42.8944 57.609 34.4934C58.6936 26.0833 57.7457 19.0765 51.9031 18.8049C46.0604 18.5333 32.7527 20.1538 32.7527 20.1538H32.7709Z" fill="#C9BDDE"/>
<path d="M33.7709 16.1538C33.7709 16.1538 34.7189 6.84748 30.6445 6.03272C26.5701 5.22702 2.0602 19.4942 1.03022 27.343C0.0366936 34.9021 23.8539 55.1351 26.6977 54.9993C29.5507 54.8635 32.1302 46.2271 32.1302 46.2271C32.1302 46.2271 43.9431 48.3818 49.5123 48.255C55.0815 48.1192 57.5243 38.8944 58.609 30.4934C59.6936 22.0833 58.7457 15.0765 52.9031 14.8049C47.0604 14.5333 33.7527 16.1538 33.7527 16.1538H33.7709Z" fill="#1F292D"/>
</svg>
