<svg width="60" height="60" viewBox="0 0 60 60" fill="none" xmlns="http://www.w3.org/2000/svg">
<path d="M5 17C5 14.7909 6.79086 13 9 13H35C37.2091 13 39 14.7909 39 17V42C39 44.2091 37.2091 46 35 46H9C6.79086 46 5 44.2091 5 42V17Z" fill="#1F292D"/>
<path d="M42 23.3736C42 22.5461 42.5097 21.804 43.282 21.5069L52.282 18.0454C53.592 17.5415 55 18.5085 55 19.9121V38.3903C55 39.7064 53.7508 40.6637 52.4801 40.3216L43.4801 37.8985C42.6068 37.6634 42 36.8716 42 35.9672V23.3736Z" fill="#1F292D"/>
<path d="M19.0657 37.9998C17.9628 37.9554 16.9621 35.1384 16.9621 35.1384C16.9621 35.1384 16.9621 35.1354 16.9586 35.1265C16.8775 34.8221 15.3377 28.9012 16.3349 23.8434C16.3912 23.5478 16.4582 23.2552 16.5357 22.9655C16.7154 22.4836 17.022 22.0964 17.54 22.0107C19.115 21.7476 28.5901 26.4063 28.9883 28.9691C29.3724 31.4404 20.1651 38.0441 19.0657 37.9998Z" fill="white"/>
<path d="M46.2512 48.1181C47.797 50.2157 46.7209 52.9725 44.827 54.3683C42.9331 55.7638 39.9819 55.975 38.4361 53.8775L5.38589 9.03141C3.84037 6.93398 4.91622 4.17836 6.80986 2.7826C8.70369 1.3869 11.655 1.17465 13.2009 3.27198L46.2512 48.1181Z" fill="#1F292D" stroke="white" stroke-width="3" stroke-linecap="round"/>
</svg>
