<svg width="60" height="60" viewBox="0 0 60 60" fill="none" xmlns="http://www.w3.org/2000/svg">
<path d="M54.99 30.45C54.99 29.34 54.21 28.38 53.12 28.15L47.94 27.06L47.7 27.01L47.86 26.81L51.34 22.31C52.07 21.37 51.98 20.04 51.14 19.21L46.16 14.24C45.37 13.45 44.14 13.32 43.21 13.93L38.88 16.75L38.57 16.95L38.53 16.58L37.82 11.06C37.67 9.88 36.67 9 35.49 9L28.44 9.02C27.33 9.02 26.38 9.8 26.15 10.88L25.12 15.75L25.01 16.3L24.54 15.95L20.31 12.67C19.37 11.95 18.04 12.03 17.2 12.87L12.24 17.85C11.45 18.64 11.32 19.87 11.93 20.8L14.56 24.83L14.96 25.43L14.23 25.53L9.06 26.19C7.88 26.34 7 27.34 7 28.53L7.02 35.56C7.02 36.67 7.8 37.63 8.89 37.86L13.59 38.85L14.3 39L13.85 39.58L10.67 43.7C9.94 44.64 10.03 45.97 10.87 46.8L15.85 51.77C16.64 52.56 17.87 52.69 18.8 52.08L22.94 49.38C23.19 49.49 23.26 49.52 23.51 49.64L24.19 54.94C24.34 56.12 25.34 57 26.52 57H33.56C34.67 56.99 35.63 56.21 35.86 55.12L36.92 50.1L37 49.71L37.31 49.95L41.7 53.34C42.64 54.07 43.97 53.98 44.8 53.14L49.77 48.16C50.56 47.37 50.69 46.14 50.08 45.21L47.19 40.78L47.05 40.58L47.3 40.54L52.94 39.82C54.12 39.67 55 38.67 55 37.49V30.45H54.99ZM31 40.47C26.87 40.47 23.53 37.13 23.53 33C23.53 28.87 26.87 25.53 31 25.53C35.13 25.53 38.47 28.87 38.47 33C38.47 37.13 35.13 40.47 31 40.47Z" fill="#C9BDDE"/>
<path d="M54.99 27.45C54.99 26.34 54.21 25.38 53.12 25.15L47.94 24.06L47.7 24.01L47.86 23.81L51.34 19.31C52.07 18.37 51.98 17.04 51.14 16.21L46.16 11.24C45.37 10.45 44.14 10.32 43.21 10.93L38.88 13.75L38.57 13.95L38.53 13.58L37.82 8.06C37.67 6.88 36.67 6 35.49 6L28.44 6.02C27.33 6.02 26.38 6.8 26.15 7.88L25.12 12.75L25.01 13.3L24.54 12.95L20.31 9.67C19.37 8.95 18.04 9.03 17.2 9.87L12.24 14.85C11.45 15.64 11.32 16.87 11.93 17.8L14.56 21.83L14.96 22.43L14.23 22.53L9.06 23.19C7.88 23.34 7 24.34 7 25.53L7.02 32.56C7.02 33.67 7.8 34.63 8.89 34.86L13.59 35.85L14.3 36L13.85 36.58L10.67 40.7C9.94 41.64 10.03 42.97 10.87 43.8L15.85 48.77C16.64 49.56 17.87 49.69 18.8 49.08L22.94 46.38C23.19 46.49 23.26 46.52 23.51 46.64L24.19 51.94C24.34 53.12 25.34 54 26.52 54H33.56C34.67 53.99 35.63 53.21 35.86 52.12L36.92 47.1L37 46.71L37.31 46.95L41.7 50.34C42.64 51.07 43.97 50.98 44.8 50.14L49.77 45.16C50.56 44.37 50.69 43.14 50.08 42.21L47.19 37.78L47.05 37.58L47.3 37.54L52.94 36.82C54.12 36.67 55 35.67 55 34.49V27.45H54.99ZM31 37.47C26.87 37.47 23.53 34.13 23.53 30C23.53 25.87 26.87 22.53 31 22.53C35.13 22.53 38.47 25.87 38.47 30C38.47 34.13 35.13 37.47 31 37.47Z" fill="#1F292D"/>
</svg>
