<svg width="60" height="60" viewBox="0 0 60 60" fill="none" xmlns="http://www.w3.org/2000/svg">
<path d="M19.0657 37.9998C17.9628 37.9554 16.9621 35.1384 16.9621 35.1384C16.9621 35.1384 16.9621 35.1354 16.9586 35.1265C16.8775 34.8221 15.3377 28.9012 16.3349 23.8434C16.3912 23.5478 16.4582 23.2552 16.5357 22.9655C16.7154 22.4836 17.022 22.0964 17.54 22.0107C19.115 21.7476 28.5901 26.4063 28.9883 28.9691C29.3724 31.4404 20.1651 38.0441 19.0657 37.9998Z" fill="white"/>
<path d="M2.898 46.7965C1.58744 38.9558 4.5362 29.3727 6.1744 25.5613C6.71689 24.4794 8.15176 24.2319 9.02537 25.0694L12.9467 28.8287C21.1377 21.7503 30.7474 19.0273 40.5766 23.3833C48.44 26.868 56.2305 34.9991 59.1429 38.6291L48.7676 46.7965C47.6755 44.6185 43.6346 39.0647 36.2081 34.2731C28.7816 29.4816 22.5564 34.0916 20.3722 36.9956L22.3116 39.482C23.3453 40.8072 23.0926 42.7399 21.614 43.539C14.9071 47.1639 6.59228 47.277 2.898 46.7965Z" fill="#C9BDDE"/>
<path d="M3.75506 42.5108C2.4445 34.6701 5.39326 25.0871 7.03146 21.2756C7.57394 20.1938 9.00881 19.9462 9.88242 20.7838L13.8037 24.543C21.9948 17.4646 31.6045 14.7417 41.4337 19.0976C49.297 22.5824 57.0876 30.7135 59.9999 34.3434L49.6247 42.5108C48.5325 40.3329 44.4916 34.779 37.0651 29.9875C29.6386 25.196 23.4135 29.806 21.2292 32.71L23.1687 35.1963C24.2024 36.5216 23.9496 38.4542 22.4711 39.2533C15.7642 42.8782 7.44933 42.9913 3.75506 42.5108Z" fill="black"/>
</svg>
