<svg width="60" height="60" viewBox="0 0 60 60" fill="none" xmlns="http://www.w3.org/2000/svg">
<path d="M18.7425 36.7331C17.6583 36.6902 16.6745 33.967 16.6745 33.967C16.6745 33.967 16.6745 33.9642 16.6711 33.9556C16.5914 33.6613 15.0777 27.9377 16.0579 23.0486C16.1134 22.7628 16.1792 22.4799 16.2554 22.1999C16.4321 21.7341 16.7334 21.3598 17.2426 21.2769C18.791 21.0226 28.1055 25.526 28.4969 28.0034C28.8745 30.3923 19.8232 36.7759 18.7425 36.7331Z" fill="white"/>
<g clip-path="url(#clip0_1308_861)">
<path d="M52.8604 9.79512C56.9625 13.8286 59.0143 19.1154 59.0143 24.4013C59.0143 29.6873 56.9632 34.9733 52.8628 39.0052C48.7623 43.0372 43.3818 45.0562 38.0083 45.0562C33.2804 45.0562 28.5525 43.4983 24.6933 40.381L23.105 41.9428C23.8869 43.8386 23.4983 46.0948 21.9321 47.6333L12.9232 56.4916C10.8383 58.544 7.45596 58.544 5.37105 56.4916C3.28615 54.4416 3.28615 51.1173 5.37105 49.0657L14.3799 40.2074C15.9461 38.6696 18.2384 38.2852 20.1672 39.0564L21.7579 37.4923C18.5852 33.696 17.0008 29.0487 17.0008 24.4021C17.0008 19.1161 19.0518 13.8301 23.1523 9.79822C27.2543 5.7632 32.6325 3.74414 38.0083 3.74414C43.3842 3.74414 48.76 5.76088 52.8604 9.79512ZM38.0083 12.5916C37.3517 12.5916 36.822 12.0707 36.822 11.4251C36.822 10.7795 37.3517 10.2586 38.0083 10.2586C41.974 10.2586 45.5692 11.8429 48.1727 14.3998C50.7779 16.9638 52.3891 20.4989 52.3891 24.4006C52.3891 25.0447 51.8594 25.567 51.2028 25.567C50.5461 25.567 50.0164 25.0439 50.0164 24.4006C50.0164 21.1383 48.6717 18.1853 46.5017 16.0476C44.33 13.9146 41.3268 12.5916 38.0091 12.5916H38.0083ZM49.9242 12.6838C46.6325 9.44789 42.3208 7.82799 38.0083 7.82799C33.6958 7.82799 29.381 9.44711 26.0924 12.6815C22.8015 15.9174 21.1541 20.1602 21.1541 24.4006C21.1541 28.641 22.7984 32.8814 26.0877 36.115L26.0901 36.1173C29.3834 39.3532 33.6958 40.9708 38.0083 40.9708C42.3208 40.9708 46.6309 39.354 49.9219 36.1196C53.2151 32.8814 54.8602 28.641 54.8602 24.4006C54.8602 20.1602 53.2159 15.9174 49.9242 12.6838Z" fill="black" stroke="black"/>
<path d="M52.8604 9.79512C56.9625 13.8286 59.0143 19.1154 59.0143 24.4013C59.0143 29.6873 56.9632 34.9733 52.8628 39.0052C48.7623 43.0372 43.3818 45.0562 38.0083 45.0562C33.2804 45.0562 28.5525 43.4983 24.6933 40.381L23.105 41.9428C23.8869 43.8386 23.4983 46.0948 21.9321 47.6333L12.9232 56.4916C10.8383 58.544 7.45596 58.544 5.37105 56.4916C3.28615 54.4416 3.28615 51.1173 5.37105 49.0657L14.3799 40.2074C15.9461 38.6696 18.2384 38.2852 20.1672 39.0564L21.7579 37.4923C18.5852 33.696 17.0008 29.0487 17.0008 24.4021C17.0008 19.1161 19.0518 13.8301 23.1523 9.79822C27.2543 5.7632 32.6325 3.74414 38.0083 3.74414C43.3842 3.74414 48.76 5.76088 52.8604 9.79512ZM38.0083 12.5916C37.3517 12.5916 36.822 12.0707 36.822 11.4251C36.822 10.7795 37.3517 10.2586 38.0083 10.2586C41.974 10.2586 45.5692 11.8429 48.1727 14.3998C50.7779 16.9638 52.3891 20.4989 52.3891 24.4006C52.3891 25.0447 51.8594 25.567 51.2028 25.567C50.5461 25.567 50.0164 25.0439 50.0164 24.4006C50.0164 21.1383 48.6717 18.1853 46.5017 16.0476C44.33 13.9146 41.3268 12.5916 38.0091 12.5916H38.0083ZM49.9242 12.6838C46.6325 9.44789 42.3208 7.82799 38.0083 7.82799C33.6958 7.82799 29.381 9.44711 26.0924 12.6815C22.8015 15.9174 21.1541 20.1602 21.1541 24.4006C21.1541 28.641 22.7984 32.8814 26.0877 36.115L26.0901 36.1173C29.3834 39.3532 33.6958 40.9708 38.0083 40.9708C42.3208 40.9708 46.6309 39.354 49.9219 36.1196C53.2151 32.8814 54.8602 28.641 54.8602 24.4006C54.8602 20.1602 53.2159 15.9174 49.9242 12.6838Z" fill="#C9BDDE" stroke="#C9BDDE"/>
</g>
<path d="M50.005 6.98702C54.107 11.0205 56.1588 16.3072 56.1588 21.5932C56.1588 26.8792 54.1078 32.1652 50.0073 36.1971C45.9069 40.229 40.5263 42.2481 35.1529 42.2481C30.425 42.2481 25.6971 40.6902 21.8378 37.5729L20.2495 39.1346C21.0315 41.0305 20.6428 43.2867 19.0766 44.8252L10.0678 53.6835C7.98285 55.7359 4.60049 55.7359 2.51558 53.6835C0.430678 51.6334 0.430678 48.3092 2.51558 46.2576L11.5244 37.3993C13.0907 35.8615 15.3829 35.4771 17.3117 36.2483L18.9024 34.6842C15.7297 30.8879 14.1453 26.2406 14.1453 21.594C14.1453 16.308 16.1964 11.022 20.2968 6.99012C24.3988 2.9551 29.777 0.936035 35.1529 0.936035C40.5287 0.936035 45.9045 2.95277 50.005 6.98702ZM35.1529 9.78347C34.4963 9.78347 33.9665 9.26263 33.9665 8.61699C33.9665 7.97136 34.4963 7.45051 35.1529 7.45051C39.1185 7.45051 42.7137 9.03475 45.3173 11.5917C47.9224 14.1557 49.5336 17.6908 49.5336 21.5925C49.5336 22.2365 49.0039 22.7589 48.3473 22.7589C47.6907 22.7589 47.161 22.2358 47.161 21.5925C47.161 18.3302 45.8162 15.3772 43.6462 13.2395C41.4746 11.1065 38.4714 9.78347 35.1536 9.78347H35.1529ZM47.0687 9.87571C43.777 6.63978 39.4653 5.01989 35.1529 5.01989C30.8404 5.01989 26.5255 6.63901 23.237 9.87338C19.946 13.1093 18.2986 17.352 18.2986 21.5925C18.2986 25.8329 19.9429 30.0733 23.2322 33.3069L23.2346 33.3092C26.5279 36.5451 30.8404 38.1627 35.1529 38.1627C39.4653 38.1627 43.7755 36.5459 47.0664 33.3115C50.3597 30.0733 52.0047 25.8329 52.0047 21.5925C52.0047 17.352 50.3605 13.1093 47.0687 9.87571Z" fill="black" stroke="black"/>
<path d="M50.005 6.98702C54.107 11.0205 56.1588 16.3072 56.1588 21.5932C56.1588 26.8792 54.1078 32.1652 50.0073 36.1971C45.9069 40.229 40.5263 42.2481 35.1529 42.2481C30.425 42.2481 25.6971 40.6902 21.8378 37.5729L20.2495 39.1346C21.0315 41.0305 20.6428 43.2867 19.0766 44.8252L10.0678 53.6835C7.98285 55.7359 4.60049 55.7359 2.51558 53.6835C0.430678 51.6334 0.430678 48.3092 2.51558 46.2576L11.5244 37.3993C13.0907 35.8615 15.3829 35.4771 17.3117 36.2483L18.9024 34.6842C15.7297 30.8879 14.1453 26.2406 14.1453 21.594C14.1453 16.308 16.1964 11.022 20.2968 6.99012C24.3988 2.9551 29.777 0.936035 35.1529 0.936035C40.5287 0.936035 45.9045 2.95277 50.005 6.98702ZM35.1529 9.78347C34.4963 9.78347 33.9665 9.26263 33.9665 8.61699C33.9665 7.97136 34.4963 7.45051 35.1529 7.45051C39.1185 7.45051 42.7137 9.03475 45.3173 11.5917C47.9224 14.1557 49.5336 17.6908 49.5336 21.5925C49.5336 22.2365 49.0039 22.7589 48.3473 22.7589C47.6907 22.7589 47.161 22.2358 47.161 21.5925C47.161 18.3302 45.8162 15.3772 43.6462 13.2395C41.4746 11.1065 38.4714 9.78347 35.1536 9.78347H35.1529ZM47.0687 9.87571C43.777 6.63978 39.4653 5.01989 35.1529 5.01989C30.8404 5.01989 26.5255 6.63901 23.237 9.87338C19.946 13.1093 18.2986 17.352 18.2986 21.5925C18.2986 25.8329 19.9429 30.0733 23.2322 33.3069L23.2346 33.3092C26.5279 36.5451 30.8404 38.1627 35.1529 38.1627C39.4653 38.1627 43.7755 36.5459 47.0664 33.3115C50.3597 30.0733 52.0047 25.8329 52.0047 21.5925C52.0047 17.352 50.3605 13.1093 47.0687 9.87571Z" fill="black" stroke="black"/>
<defs>
<clipPath id="clip0_1308_861">
<rect width="57.1106" height="56.1587" fill="white" transform="translate(2.85547 2.80811)"/>
</clipPath>
</defs>
</svg>
