<svg width="113" height="116" viewBox="0 0 113 116" fill="none" xmlns="http://www.w3.org/2000/svg">
<g filter="url(#filter0_dd_482_429)">
<rect x="6.5" width="100" height="93.931" rx="30" fill="#AE217F" shape-rendering="crispEdges"/>
<rect x="7.5" y="1" width="98" height="91.931" rx="29" stroke="#1F292D" stroke-width="2" shape-rendering="crispEdges"/>
<path d="M36.7931 48.7242V66.3104H74.3103V48.7242H36.7931Z" fill="white"/>
<mask id="path-4-outside-1_482_429" maskUnits="userSpaceOnUse" x="17.7241" y="15" width="76" height="44" fill="black">
<rect fill="white" x="17.7241" y="15" width="76" height="44"/>
<path d="M88.0864 37.8789L55.5513 53.1211V53.4141L22.7241 38.0371L55.5513 20L88.0864 37.8789Z"/>
</mask>
<path d="M88.0864 37.8789L55.5513 53.1211V53.4141L22.7241 38.0371L55.5513 20L88.0864 37.8789Z" fill="white"/>
<path d="M88.0864 37.8789L90.2076 42.4067C91.9118 41.6083 93.0233 39.9207 93.0838 38.0398C93.1444 36.1589 92.1437 34.4033 90.4944 33.4969L88.0864 37.8789ZM55.5513 53.1211L53.4301 48.5933C51.6734 49.4163 50.5513 51.1812 50.5513 53.1211H55.5513ZM55.5513 53.4141L53.4303 57.9419C54.979 58.6674 56.791 58.551 58.2341 57.6334C59.6772 56.7157 60.5513 55.1242 60.5513 53.4141H55.5513ZM22.7241 38.0371L20.3164 33.655C18.667 34.5613 17.6662 36.317 17.7267 38.198C17.7873 40.079 18.8989 41.7667 20.6032 42.565L22.7241 38.0371ZM55.5513 20L57.9593 15.618C56.4598 14.794 54.643 14.794 53.1435 15.6179L55.5513 20ZM88.0864 37.8789L85.9652 33.3511L53.4301 48.5933L55.5513 53.1211L57.6725 57.6489L90.2076 42.4067L88.0864 37.8789ZM55.5513 53.1211H50.5513V53.4141H55.5513H60.5513V53.1211H55.5513ZM55.5513 53.4141L57.6722 48.8862L24.8451 33.5092L22.7241 38.0371L20.6032 42.565L53.4303 57.9419L55.5513 53.4141ZM22.7241 38.0371L25.1319 42.4192L57.959 24.3821L55.5513 20L53.1435 15.6179L20.3164 33.655L22.7241 38.0371ZM55.5513 20L53.1433 24.382L85.6784 42.2609L88.0864 37.8789L90.4944 33.4969L57.9593 15.618L55.5513 20Z" fill="#AE217F" mask="url(#path-4-outside-1_482_429)"/>
<path d="M86.7584 58.3448V39L76.5001 36" stroke="white" stroke-width="3" stroke-linecap="square"/>
<circle cx="86.7586" cy="58.3448" r="3.51724" fill="white"/>
<ellipse cx="55.5517" cy="66.3104" rx="18.7586" ry="7.62069" fill="white"/>
</g>
<defs>
<filter id="filter0_dd_482_429" x="0.5" y="0" width="112" height="115.931" filterUnits="userSpaceOnUse" color-interpolation-filters="sRGB">
<feFlood flood-opacity="0" result="BackgroundImageFix"/>
<feColorMatrix in="SourceAlpha" type="matrix" values="0 0 0 0 0 0 0 0 0 0 0 0 0 0 0 0 0 0 127 0" result="hardAlpha"/>
<feOffset dy="16"/>
<feGaussianBlur stdDeviation="3"/>
<feComposite in2="hardAlpha" operator="out"/>
<feColorMatrix type="matrix" values="0 0 0 0 0.121569 0 0 0 0 0.160784 0 0 0 0 0.176471 0 0 0 0.85 0"/>
<feBlend mode="normal" in2="BackgroundImageFix" result="effect1_dropShadow_482_429"/>
<feColorMatrix in="SourceAlpha" type="matrix" values="0 0 0 0 0 0 0 0 0 0 0 0 0 0 0 0 0 0 127 0" result="hardAlpha"/>
<feOffset dy="8"/>
<feComposite in2="hardAlpha" operator="out"/>
<feColorMatrix type="matrix" values="0 0 0 0 0.34902 0 0 0 0 0.0352941 0 0 0 0 0.247059 0 0 0 1 0"/>
<feBlend mode="normal" in2="effect1_dropShadow_482_429" result="effect2_dropShadow_482_429"/>
<feBlend mode="normal" in="SourceGraphic" in2="effect2_dropShadow_482_429" result="shape"/>
</filter>
</defs>
</svg>
