<svg width="55" height="55" viewBox="0 0 55 55" fill="none" xmlns="http://www.w3.org/2000/svg">
<g clip-path="url(#clip0_169_1078)">
<path d="M6.5 19C6 19 3 34.5 3 35.5L4 37.5H13C13.8 37.5 19 34.8333 21.5 33.5L19 29L21.5 26L36.5 27C39.3333 29.8333 45.1 35.7 45.5 36.5C45.9 37.3 50 32.5 52 30L46.5 23L35.5 15.5H23L12 21.5C10.3333 20.6667 6.9 19 6.5 19Z" fill="white"/>
<path d="M16.6884 29.9405C22.7559 23.8731 24.9524 23.5014 29.0199 24.3218C33.4634 25.2181 39.6129 29.8289 41.6213 32.2739L44.7992 36.1426L52.5366 29.7869L49.3587 25.9181C46.2929 22.1859 40.6317 16.2912 33.3714 14.8268C25.7352 13.2866 19.115 14.5668 10.8864 22.7954" stroke="#1F292D" stroke-width="4"/>
<path d="M11.935 21.867C11.935 21.867 7.72157 17.7932 6.56963 18.7693C5.42126 19.7421 0.942498 35.5359 3.47655 37.5284C6.10441 39.5949 19.716 35.2723 21.0777 33.5684C21.5261 33.0088 21.4993 32.358 21.2622 31.7344C21.0889 31.3877 19.8929 30.6153 18.4999 29.0001" stroke="#1F292D" stroke-width="4" stroke-linecap="square" stroke-linejoin="round"/>
</g>
<defs>
<clipPath id="clip0_169_1078">
<rect width="55" height="55" fill="white"/>
</clipPath>
</defs>
</svg>
