<svg width="55" height="55" viewBox="0 0 55 55" fill="none" xmlns="http://www.w3.org/2000/svg">
<path d="M32.0554 20.0167C29.9437 18.0639 29.5271 18 28.5 18C27.4729 18 27.0563 18.0639 24.9446 20.0167C23.07 21.7494 15.6432 28.6871 14.3575 30.0363C13.0718 31.3784 13 32.5785 13 35.2698V43.7122C13 45.5798 14.1133 47 16.4189 47H39.6689C43.1022 47 44 45.5798 44 43.7122V35.2698C44 32.5785 43.921 31.3855 42.6425 30.0363C41.3568 28.6942 33.93 21.7565 32.0554 20.0167Z" fill="white" stroke="#1F292D" stroke-width="4"/>
<path d="M49.0886 19.0716C47.2768 17.3802 34.0858 5.99737 32.5819 4.76274C31.078 3.52811 29.7675 3 28.5 3C27.2325 3 25.9219 3.52811 24.4181 4.76274C22.9071 6.00451 9.71603 17.3802 7.9114 19.0716C6.0996 20.763 5.44792 22.7041 6.51495 24.0316C7.61062 25.3804 9.68023 25.4232 11.8286 23.5034C13.977 21.5908 26.8386 9.45149 28.5 9.45149C30.1614 9.45149 43.023 21.5837 45.1714 23.5034C47.3198 25.4161 49.3965 25.3804 50.485 24.0316C51.5521 22.7113 50.9004 20.763 49.0886 19.0716Z" fill="white" stroke="#1F292D" stroke-width="4"/>
</svg>
