<svg width="55" height="56" viewBox="0 0 55 56" fill="none" xmlns="http://www.w3.org/2000/svg">
<path d="M7.04841 30.2573C6.93915 25.7744 6.75276 24.0586 9.79919 22.1944C12.852 20.3303 21.7021 15.5506 24.2344 14.8023C26.7666 14.0541 31.3041 14.5766 32.416 17.7115C33.5279 20.8463 34.1256 35.3338 33.9778 38.0945C33.83 40.8552 32.3389 44.3513 28.0263 43.3128C23.7138 42.2743 14.4138 39.8877 11.5088 38.7653C8.61018 37.643 7.19623 36.2239 7.04198 30.2509L7.04841 30.2573Z" fill="white" stroke="#1F292D" stroke-width="4"/>
<path d="M44.4453 13.6362C44.5584 13.5233 44.7473 13.5232 44.8604 13.6362C44.9735 13.7493 44.9735 13.9391 44.8604 14.0522L40.501 18.4116C40.4671 18.4455 40.4343 18.4649 40.4043 18.4771C40.3735 18.4895 40.3361 18.4972 40.292 18.4976C40.2132 18.4965 40.1409 18.4675 40.085 18.4116C39.9719 18.2985 39.9718 18.1087 40.085 17.9956L44.4443 13.6362H44.4453Z" fill="white" stroke="#1F292D" stroke-width="4"/>
<path d="M40.085 38.1406C40.1981 38.0275 40.3879 38.0275 40.501 38.1406L44.8604 42.501C44.9733 42.6141 44.9734 42.8029 44.8604 42.916C44.8266 42.9498 44.7946 42.9693 44.7646 42.9814C44.734 42.9939 44.6963 43.0015 44.6523 43.002C44.5734 43.001 44.5012 42.9718 44.4453 42.916L40.085 38.5566C39.9718 38.4435 39.9718 38.2537 40.085 38.1406Z" fill="white" stroke="#1F292D" stroke-width="4"/>
<path d="M41.0203 27.9746H48.4626C48.6288 27.9748 48.7603 28.1063 48.7605 28.2725C48.7605 28.4388 48.6289 28.571 48.4626 28.5713H41.0203C40.854 28.5711 40.7224 28.4389 40.7224 28.2725C40.7226 28.1063 40.8541 27.9748 41.0203 27.9746Z" fill="white" stroke="#1F292D" stroke-width="4"/>
</svg>
