<svg width="60" height="60" viewBox="0 0 60 60" fill="none" xmlns="http://www.w3.org/2000/svg">
<path d="M3.00018 13.3045C3.03018 9.65452 5.73018 8.26452 12.1202 8.07452C18.5002 7.89452 47.7602 8.08452 50.9502 8.18452C54.1402 8.27452 56.6002 9.73452 56.6902 12.6545C56.7802 15.5745 56.3302 18.0345 50.4902 18.3945C44.6502 18.7545 13.4802 18.2745 9.38018 18.3945C4.64018 18.5545 2.98018 16.4845 3.00018 13.2945V13.3045Z" fill="#C9BDDE"/>
<path d="M3.00018 50.1345C3.03018 46.4845 5.73018 45.0945 12.1202 44.9045C18.5102 44.7145 47.7602 44.9145 50.9502 45.0145C54.1402 45.1045 56.6002 46.5645 56.6902 49.4845C56.7802 52.4045 56.3302 54.8645 50.4902 55.2245C44.6502 55.5845 13.4802 55.1045 9.38018 55.2245C4.64018 55.3845 2.98018 53.3145 3.00018 50.1245V50.1345Z" fill="#C9BDDE"/>
<path d="M3.00018 31.7145C3.03018 28.0645 5.73018 26.6745 12.1202 26.4845C18.5002 26.3045 28.7702 26.4945 31.9602 26.5945C35.1502 26.6845 37.6102 28.1445 37.7002 31.0645C37.7902 33.9845 37.3402 36.4445 31.5002 36.8045C25.6602 37.1645 13.4802 36.6845 9.38018 36.8045C4.64018 36.9645 2.98018 34.8945 3.00018 31.7045V31.7145Z" fill="#C9BDDE"/>
<path d="M3.00018 10.3045C3.03018 6.65452 5.73018 5.26452 12.1202 5.07452C18.5002 4.89452 47.7602 5.08452 50.9502 5.18452C54.1402 5.27452 56.6002 6.73452 56.6902 9.65452C56.7802 12.5745 56.3302 15.0345 50.4902 15.3945C44.6502 15.7545 13.4802 15.2745 9.38018 15.3945C4.64018 15.5545 2.98018 13.4845 3.00018 10.2945V10.3045Z" fill="#1F292D"/>
<path d="M3.00018 47.1345C3.03018 43.4845 5.73018 42.0945 12.1202 41.9045C18.5102 41.7145 47.7602 41.9145 50.9502 42.0145C54.1402 42.1045 56.6002 43.5645 56.6902 46.4845C56.7802 49.4045 56.3302 51.8645 50.4902 52.2245C44.6502 52.5845 13.4802 52.1045 9.38018 52.2245C4.64018 52.3845 2.98018 50.3145 3.00018 47.1245V47.1345Z" fill="#1F292D"/>
<path d="M3.00018 28.7145C3.03018 25.0645 5.73018 23.6745 12.1202 23.4845C18.5002 23.3045 28.7702 23.4945 31.9602 23.5945C35.1502 23.6845 37.6102 25.1445 37.7002 28.0645C37.7902 30.9845 37.3402 33.4445 31.5002 33.8045C25.6602 34.1645 13.4802 33.6845 9.38018 33.8045C4.64018 33.9645 2.98018 31.8945 3.00018 28.7045V28.7145Z" fill="#1F292D"/>
</svg>
