<svg width="60" height="60" viewBox="0 0 60 60" fill="none" xmlns="http://www.w3.org/2000/svg">
<path d="M46.7175 33.0886C46.3586 33.0373 46.0144 32.8542 45.78 32.5393C45.3039 31.9167 45.4284 31.0231 46.051 30.547L49.0906 28.2398C49.7132 27.7638 50.6068 27.8883 51.0829 28.5108C51.559 29.1334 51.4345 30.027 50.8119 30.5031L47.7722 32.8103C47.4573 33.0447 47.0838 33.1326 46.7175 33.0886Z" fill="#C9BDDE"/>
<path d="M47.3402 48.4921C46.9813 48.4408 46.637 48.2577 46.4026 47.9427L44.0954 44.9031C43.6193 44.2805 43.7439 43.387 44.3664 42.9109C44.989 42.4348 45.8826 42.5593 46.3587 43.1819L48.6659 46.2215C49.142 46.8441 49.0175 47.7377 48.3949 48.2138C48.0799 48.4481 47.7064 48.536 47.3402 48.4921Z" fill="#C9BDDE"/>
<path d="M53.5805 40.3252L49.0174 39.7026C48.241 39.5927 47.699 38.8823 47.8015 38.1059C47.9041 37.3295 48.6218 36.7875 49.3982 36.89L53.9614 37.5126C54.7378 37.6225 55.2798 38.3329 55.1772 39.1093C55.0747 39.8857 54.3569 40.4277 53.5805 40.3252Z" fill="#C9BDDE"/>
<path d="M4.25152 28.1005C2.91847 19.8386 6.7345 10.0165 19.2959 7.53354C30.9051 5.24099 39.548 10.3608 39.2843 22.4241C39.2843 22.4241 38.9474 23.8597 40.4196 24.6874C41.8918 25.515 44.2356 27.5878 40.4196 30.6714C40.4196 30.6714 41.7599 31.4771 41.7599 33.3522C41.7599 35.2272 35.6514 32.0997 34.9262 34.6559C33.7543 38.8089 39.0792 40.1785 39.8849 41.1161C40.6906 42.0536 39.8409 44.2656 33.0512 46.4629C27.3528 48.3087 23.7858 47.5103 23.7858 47.5103C23.7858 47.5103 23.6466 51.3776 23.068 52.3664C22.4894 53.3552 12.3523 53.3698 11.0193 51.6999C9.68625 50.0299 12.8944 42.1195 12.8944 42.1195C12.8944 42.1195 6.25841 40.5301 4.25152 28.0932V28.1005Z" fill="#C9BDDE"/>
<path d="M46.7175 31.0886C46.3586 31.0373 46.0144 30.8542 45.78 30.5393C45.3039 29.9167 45.4284 29.0231 46.051 28.547L49.0906 26.2398C49.7132 25.7638 50.6068 25.8883 51.0829 26.5108C51.559 27.1334 51.4345 28.027 50.8119 28.5031L47.7722 30.8103C47.4573 31.0447 47.0838 31.1326 46.7175 31.0886Z" fill="#1F292D"/>
<path d="M47.3402 46.4921C46.9813 46.4408 46.637 46.2577 46.4026 45.9427L44.0954 42.9031C43.6193 42.2805 43.7439 41.387 44.3664 40.9109C44.989 40.4348 45.8826 40.5593 46.3587 41.1819L48.6659 44.2215C49.142 44.8441 49.0175 45.7377 48.3949 46.2138C48.0799 46.4481 47.7064 46.536 47.3402 46.4921Z" fill="#1F292D"/>
<path d="M53.5805 38.3252L49.0174 37.7026C48.241 37.5927 47.699 36.8823 47.8015 36.1059C47.9041 35.3295 48.6218 34.7875 49.3982 34.89L53.9614 35.5126C54.7378 35.6225 55.2798 36.3329 55.1772 37.1093C55.0747 37.8857 54.3569 38.4277 53.5805 38.3252Z" fill="#1F292D"/>
<path d="M4.25152 26.1005C2.91847 17.8386 6.7345 8.01652 19.2959 5.53354C30.9051 3.24099 39.548 8.36077 39.2843 20.4241C39.2843 20.4241 38.9474 21.8597 40.4196 22.6874C41.8918 23.515 44.2356 25.5878 40.4196 28.6714C40.4196 28.6714 41.7599 29.4771 41.7599 31.3522C41.7599 33.2272 35.6514 30.0997 34.9262 32.6559C33.7543 36.8089 39.0792 38.1785 39.8849 39.1161C40.6906 40.0536 39.8409 42.2656 33.0512 44.4629C27.3528 46.3087 23.7858 45.5103 23.7858 45.5103C23.7858 45.5103 23.6466 49.3776 23.068 50.3664C22.4894 51.3552 12.3523 51.3698 11.0193 49.6999C9.68625 48.0299 12.8944 40.1195 12.8944 40.1195C12.8944 40.1195 6.25841 38.5301 4.25152 26.0932V26.1005Z" fill="#1F292D"/>
</svg>
