<svg width="60" height="60" viewBox="0 0 60 60" fill="none" xmlns="http://www.w3.org/2000/svg">
<path d="M19.0657 37.9998C17.9628 37.9554 16.9621 35.1384 16.9621 35.1384C16.9621 35.1384 16.9621 35.1354 16.9586 35.1265C16.8775 34.8221 15.3377 28.9012 16.3349 23.8434C16.3912 23.5478 16.4582 23.2552 16.5357 22.9655C16.7154 22.4836 17.022 22.0964 17.54 22.0107C19.115 21.7476 28.5901 26.4063 28.9883 28.9691C29.3724 31.4404 20.1651 38.0441 19.0657 37.9998Z" fill="white"/>
<path d="M37.4524 22.3162C37.3528 24.5919 39.1708 26.4912 41.4486 26.4912H51.4071C54.0886 26.4912 56.0107 29.0778 55.237 31.6453L53.55 37.2439C53.0409 38.9335 51.4847 40.0898 49.7201 40.0898H40.5035C38.3624 40.0898 36.601 41.7758 36.5074 43.9148L36.0142 55.175C35.9206 57.314 34.1591 59 32.0181 59H25.8145C24.4116 59 23.286 58.1859 23.1077 56.7944C22.7715 54.1702 22.4166 49.493 22.0729 43.8652C21.9435 41.7475 20.1924 40.0898 18.0707 40.0898H7.50147C5.69083 40.0898 4.10598 38.8736 3.63761 37.1246L2.13834 31.5259C1.45806 28.9856 3.37233 26.4912 6.0022 26.4912H16.9748C19.2561 26.4912 21.0751 24.586 20.9754 22.3068C20.8033 18.3751 20.6488 14.5658 20.5189 11.1399C20.4331 8.87712 22.2463 7 24.5107 7H33.9441C36.2219 7 38.0399 8.89936 37.9403 11.175L37.4524 22.3162Z" fill="#C9BDDE"/>
<path d="M40.05 17.5572C39.9508 19.8326 41.7687 21.7314 44.0462 21.7314H54.1656C56.8451 21.7314 58.7669 24.3144 57.9969 26.8809L56.2671 32.6465C55.7595 34.3384 54.2023 35.4971 52.4358 35.4971H43.0979C40.9565 35.4971 39.1949 37.1836 39.1017 39.323L38.6011 50.8147C38.5079 52.9541 36.7463 54.6406 34.6049 54.6406H28.3095C26.9044 54.6406 25.7767 53.8251 25.5981 52.4315C25.2573 49.7723 24.8975 45.0079 24.5491 39.2731C24.4205 37.1549 22.6692 35.4971 20.5471 35.4971H9.84538C8.03318 35.4971 6.44738 34.2787 5.98044 32.5277L4.44291 26.7621C3.76573 24.2227 5.67972 21.7314 8.30785 21.7314H19.4471C21.7281 21.7314 23.5469 19.8268 23.4476 17.5479C23.2726 13.5294 23.1154 9.63587 22.9837 6.13918C22.8984 3.87665 24.7115 2 26.9756 2H36.5501C38.8276 2 40.6455 3.89889 40.5463 6.17425L40.05 17.5572Z" fill="black"/>
</svg>
